<svg width="20px" height="20px" viewBox="0 0 20 20" version="1.1" xmlns="http://www.w3.org/2000/svg">
    <g fill-rule="evenodd">
        <path d="M13.2410306,14.5694577 C12.0641569,15.4669959 10.5943233,16 9,16 C5.13400675,16 2,12.8659932 2,9 C2,5.13400675 5.13400675,2 9,2 C12.8659932,2 16,5.13400675 16,9 C16,10.5503246 15.4960087,11.9829356 14.6429298,13.1429298 L18,16.5 C18,16.5 18.7071068,17.2071068 18,17.9142136 C17.2928932,18.6213203 16.5857864,17.9142136 16.5857864,17.9142136 L13.2410306,14.5694577 Z M9,14 C11.7614237,14 14,11.7614237 14,9 C14,6.23857625 11.7614237,4 9,4 C6.23857625,4 4,6.23857625 4,9 C4,11.7614237 6.23857625,14 9,14 Z"></path>
    </g>
</svg>