<svg width="20px" height="20px" viewBox="0 0 20 20" version="1.1" xmlns="http://www.w3.org/2000/svg">
    <g fill-rule="evenodd">
        <path d="M10,18 C12,18 17,14 17,9 C17,5.13400675 13.8659932,2 10,2 C6.13400675,2 3,5.13400675 3,9 C3,14 8,18 10,18 Z M10,16 C11.5,16 15,12.5 15,9 C15,6.23857625 12.7614237,4 10,4 C7.23857625,4 5,6.23857625 5,9 C5,12.5 8.5,16 10,16 Z M10,11 C11.1045695,11 12,10.1045695 12,9 C12,7.8954305 11.1045695,7 10,7 C8.8954305,7 8,7.8954305 8,9 C8,10.1045695 8.8954305,11 10,11 Z"></path>
    </g>
</svg>