<svg width="20px" height="20px" viewBox="0 0 20 20" version="1.1" xmlns="http://www.w3.org/2000/svg">
    <g fill-rule="evenodd">
        <path d="M10.0058337,5 C10.0058337,5 11.5,3 14,3 C16.5,3 18.0058337,4.99999479 18.0058337,7.5 C18.0058337,13 11.5,17 10.0058337,17 C8.5,17 2.00583373,13.0000024 2.00583373,7.5 C2.00583373,6 3.5,3 6,3 C8.5,3 10.0058337,5 10.0058337,5 Z M10,7.5 C11.4640234,7.5 11.5,5 13.5,5 C15.5,5 16,6.20990661 16,8.04117908 C16,12.0699701 10.5,15 10,15 C9.5,15 4,12.0699719 4,8.04117908 C4,6.94241788 4.66873134,5 6.5,5 C8.33126866,5 8.53597662,7.5 10,7.5 Z"></path>
        <path fill="currentColor" d="M10.0058337,5 C10.0058337,5 11.5,3 14,3 C16.5,3 18.0058337,4.99999479 18.0058337,7.5 C18.0058337,13 11.5,17 10.0058337,17 C8.5,17 2.00583373,13.0000024 2.00583373,7.5 C2.00583373,6 3.5,3 6,3 C8.5,3 10.0058337,5 10.0058337,5 Z"></path>
    </g>
</svg>