<svg width="20px" height="20px" viewBox="0 0 20 20" version="1.1" xmlns="http://www.w3.org/2000/svg">
    <g fill-rule="evenodd">
        <path d="M2,5.00247329 C2,4.44882258 2.44463086,4 3.00087166,4 L16.9991283,4 C17.5518945,4 18,4.45576096 18,5.00247329 L18,14.9975267 C18,15.5511774 17.5553691,16 16.9991283,16 L3.00087166,16 C2.4481055,16 2,15.544239 2,14.9975267 L2,5.00247329 Z M4,8.5 L4,14 L16,14 L16,8.5 L10.8342743,11.9438171 C10.3735173,12.2509885 9.62467313,12.2497821 9.16572571,11.9438171 L4,8.5 Z M4,6 L10,10 L16,6 L4,6 Z"></path>
    </g>
</svg>