<svg width="20px" height="20px" viewBox="0 0 20 20" version="1.1" xmlns="http://www.w3.org/2000/svg">
    <g fill-rule="evenodd">
        <path d="M9.72337036,3 C15.3483704,3 18.2506493,9.1416626 18.2506493,9.1416626 C18.5117259,9.61570926 18.5152629,10.3964068 18.2422772,10.8724014 C18.2422772,10.8724014 15.3483704,17 9.72337036,17 C4.09837036,17 1.19609146,10.8583374 1.19609146,10.8583374 C0.935014807,10.3842907 0.931477795,9.60359323 1.20446357,9.12759863 C1.20446357,9.12759863 4.09837036,3 9.72337036,3 Z M9.72337036,5 C14.0983704,5 16.7233704,10 16.7233704,10 C16.7233704,10 14.0983704,15 9.72337036,15 C5.34837036,15 2.72337036,10 2.72337036,10 C2.72337036,10 5.34837036,5 9.72337036,5 Z M9.72337036,12 C10.8279399,12 11.7233704,11.1045695 11.7233704,10 C11.7233704,8.8954305 10.8279399,8 9.72337036,8 C8.61880086,8 7.72337036,8.8954305 7.72337036,10 C7.72337036,11.1045695 8.61880086,12 9.72337036,12 Z"></path>
    </g>
</svg>