<svg width="20px" height="20px" viewBox="0 0 20 20" version="1.1" xmlns="http://www.w3.org/2000/svg">
    <g fill-rule="evenodd">
        <path d="M5,4.03415009 L5,2.99323929 C5,2.44468838 5.4556644,2 5.99539757,2 L14.0046024,2 C14.5543453,2 15,2.45144383 15,2.99323929 L15,4.03415009 L17.9906311,4.00861751 C18.5480902,4.00385819 19,4.43788135 19,5.00292933 L19,7.00925446 C19,9.21328236 17.2085508,11.0011447 14.9987723,11.0025566 L14.5,11.0028753 C14.5,12.6581416 11.8162542,13.9582871 11.0285221,13.9460436 L11,15.9847197 L13.0533279,15.9949967 C13.6054268,15.9977599 14.0412309,16.4438648 14.0264957,17 C14.0118625,17.5522847 13.5469637,18 13.0029699,18 L6.99703014,18 C6.4463856,18 6,17.5561352 6,17 C6,16.4477153 6.44266033,15.9977453 6.99895656,15.9949119 L9,15.9847197 L9.08972233,13.9897972 C7.10717343,13.9897972 5.5,11.7566018 5.5,11.0028753 L5.00122768,11.0028753 C2.79141065,11.0028753 1,9.2176348 1,7.01049055 L1,5.0033413 C1,4.4492112 1.44335318,4.00378514 2.0093689,4.00861751 L5,4.03415009 Z M3,6 L5,6 L5,9 C5,9 3,9 3,7 L3,6 Z M17,6 L15,6 L15,9 C15,9 17,9 17,7 L17,6 Z M7,4 L13,4 L13,8.99833453 C13,10.6561086 11.6534829,12 10,12 C8.34314575,12 7,10.6609799 7,8.99833453 L7,4 Z"></path>
    </g>
</svg>