<svg width="20px" height="20px" viewBox="0 0 20 20" version="1.1" xmlns="http://www.w3.org/2000/svg">
    <g fill-rule="evenodd">
        <path d="M15.6054218,16.1405623 C16.7764884,15.0336739 18,13.1285927 18,10 C18,4 12,2.19812012 12,2.19812012 C12,2.19812012 10.8308105,2.10852051 10.8308105,3.25061035 C10.8308105,4.3927002 12,4.5 12,4.5 C12,4.5 16,6 16,10 C16,12.027303 15.1009468,13.4124252 14.214167,14.285556 L13.0975653,12.7967537 C12.7675391,12.3567188 12.3921237,12.4315052 12.258999,12.9640038 L11.241001,17.0359962 C11.1078998,17.5684008 11.4509752,18 11.990778,18 L16.009222,18 C16.5564136,18 16.7319808,17.6426411 16.4024347,17.2032463 L15.6054218,16.1405623 Z M4.35084431,3.80112574 C3.19325456,4.91392249 2,6.81033401 2,9.9000001 C2,15.9000001 8,17.70188 8,17.70188 C8,17.70188 9.16918945,17.7914796 9.16918945,16.6493897 C9.16918945,15.5072999 8,15.4000001 8,15.4000001 C8,15.4000001 4,13.9000001 4,9.9000001 C4,7.90543863 4.87024776,6.5324827 5.74286195,5.65714926 L6.90243474,7.20324633 C7.23246092,7.64328123 7.6078763,7.5684948 7.74100095,7.0359962 L8.75899905,2.9640038 C8.8921002,2.4315992 8.54902482,2 8.00922203,2 L3.99077797,2 C3.44358641,2 3.2680192,2.35735893 3.59756526,2.79675367 L4.35084431,3.80112574 Z"></path>
    </g>
</svg>