<svg width="20px" height="20px" viewBox="0 0 20 20" version="1.1" xmlns="http://www.w3.org/2000/svg">
    <g fill-rule="evenodd">
        <path d="M7,3 C7,3 7,2 8,2 L13.0000567,2 C15.2091644,2 17,3.79965349 17,5.9999433 L17,7.0000567 C17,9.20916438 15.2046438,11 13,11 L9,11 L9,13 L14,13 C14,13 15,13 15,14 C15,15 14,15 14,15 L9,15 L9,17 C9,17 9,18 8,18 C7,18 7,17 7,17 L7,15 L4,15 C4,15 3,15 3,14 C3,13 4,13 4,13 L7,13 L7,11 L4,11 C4,11 3,11 3,10 C3,9 4,9 4,9 L7,9 L7,3 Z M12.4902248,4 L9,4 L9,9 L12.4902248,9 C13.8714459,9 15,7.88071187 15,6.5 C15,5.10966206 13.8763354,4 12.4902248,4 Z"></path>
    </g>
</svg>