<svg xmlns="http://www.w3.org/2000/svg" width="70" height="46" viewBox="0 0 70 46">
    <g fill="#2C3544" fill-rule="evenodd">
        <path d="M37.2340417,23.0220374 C37.2340417,31.958313 29.7872333,41.6392792 18.6170208,41.6392792 C7.44680832,41.6392792 0,32.3154029 0,23.0220374 C0,13.7517819 7.44680832,4.40479364 18.6170208,4.40479364 L26.80851,4.40479364 C26.80851,4.40479364 23.8297866,2.08364868 25.3191483,0.681345085 C26.80851,-0.907549703 28.2978716,0.6813451 29.0425525,1.4260348 L32.0212758,4.40479364 C33.5106374,5.89417306 33.5106374,7.38355249 32.0212758,8.87293191 L29.0425525,11.8516908 C28.2978716,12.5963803 26.80851,14.0484405 25.3191483,12.5963805 C23.8297866,11.0572436 26.80851,8.87293191 26.80851,8.87293191 L18.6170208,8.87293191 C11.9148933,8.87293191 4.46808499,14.0857618 4.46808499,23.0220374 C4.46808499,31.958313 11.9142939,37.1711409 18.6170208,37.1711409 C26.80851,37.1711409 32.7659453,30.4689334 32.7659556,23.0220374 C32.76597,12.5219126 41.7021255,4.3270477 51.3829764,4.40479364 C61.0638272,4.32704699 70,12.5544186 70,23.0220374 C70,33.4896562 61.0638282,41.6392792 51.3829764,41.6392792 L43.1914872,41.6392792 C43.1914872,41.6392792 46.1702105,43.8733483 44.6808489,45.3627278 C43.1914872,46.8521072 41.7021266,45.362729 40.9574447,44.618038 L37.9787214,41.6392792 C36.4893597,40.1498998 36.4893597,38.6605204 37.9787214,37.1711409 L40.9574447,34.1923821 C41.7021266,33.4476936 43.1914872,31.958313 44.6808489,33.4476924 C46.1702105,34.9370718 43.1914872,37.1711409 43.1914872,37.1711409 L51.3829764,37.1711409 C58.8297857,37.1711409 65.5319111,31.2136252 65.531915,23.0220374 C65.5319189,14.8304496 58.8293383,8.87293191 51.3829764,8.87293191 C43.1914883,8.87293191 37.2340417,15.5751393 37.2340417,23.0220374 Z"/>
        <path d="M16.5,21 L12.4979131,21 C11.3944962,21 10.5,21.8877296 10.5,23 L10.5,23 C10.5,24.1045695 11.3982606,25 12.4979131,25 L16.5,25 L16.5,29.0020869 C16.5,30.1055038 17.3877296,31 18.5,31 L18.5,31 C19.6045695,31 20.5,30.1017394 20.5,29.0020869 L20.5,25 L24.5020869,25 C25.6055038,25 26.5,24.1122704 26.5,23 L26.5,23 C26.5,21.8954305 25.6017394,21 24.5020869,21 L20.5,21 L20.5,16.9979131 C20.5,15.8944962 19.6122704,15 18.5,15 L18.5,15 C17.3954305,15 16.5,15.8982606 16.5,16.9979131 L16.5,21 Z"/>
    </g>
</svg>
