<svg xmlns="http://www.w3.org/2000/svg" width="17" height="17" viewBox="0 0 17 17">
    <g fill="#2C3544">
        <path d="M2.5 11C3.88071187 11 5 9.88071187 5 8.5 5 7.11928813 3.88071187 6 2.5 6 1.11928813 6 0 7.11928813 0 8.5 0 9.88071187 1.11928813 11 2.5 11zM14.5 11C15.8807119 11 17 9.88071187 17 8.5 17 7.11928813 15.8807119 6 14.5 6 13.1192881 6 12 7.11928813 12 8.5 12 9.88071187 13.1192881 11 14.5 11zM8.5 17C9.88071187 17 11 15.8807119 11 14.5 11 13.1192881 9.88071187 12 8.5 12 7.11928813 12 6 13.1192881 6 14.5 6 15.8807119 7.11928813 17 8.5 17z"/>
    </g>
</svg>
