<svg width="55px" height="39px" viewBox="0 0 55 39" version="1.1" xmlns="http://www.w3.org/2000/svg">
    <path fill="#F04349" d="M55,19.5 C55,29 48,36 38.5,36 L37.5,36 L35.5,38 C34.5,39 33.5,39 33,39 C31.5,39 31,38.5 30,37.5 L25.5,33 C23.5,34.5 20.5,36 16.5882349,36 C8,36 8.20356349e-16,29 0,19.5 C8.20356333e-16,10 8,3 16.5882349,3 L17.5,3 L19.5,1 C20.5,0 21.5,6.11887981e-06 22,0 C23.5,-1.83566394e-05 24,0.5 25,1.5 C25,1.5 28,4.5 29.5,6 C32.5,4 34.5,3 38.5,3 C47,3 55,10 55,19.5 Z"></path>
    <path fill="#FFFFFF" d="M29,19.5000007 C29,25.5 23.9999999,32 16.4999999,32 C8.99999993,32 3.99999993,25.7397575 3.99999993,19.5000007 C3.99999993,13.2757603 8.99999993,7 16.4999999,7 L21.9999999,7 C21.9999999,7 19.9999999,5.4415355 20.9999999,4.5 C21.9999999,3.43318334 22.9999999,4.50000001 23.4999999,5 L25.4999999,7 C26.4999999,8 26.4999999,9 25.4999999,10 L23.4999999,12 C22.9999999,12.4999999 21.9999999,13.474943 20.9999999,12.5 C19.9999999,11.4665919 21.9999999,10 21.9999999,10 L16.4999999,10 C11.9999999,10 6.99999993,13.5000013 6.99999993,19.5000007 C6.99999993,25.5 11.9995975,29 16.4999999,29 C21.9999999,29 25.9999923,24.4999999 25.9999992,19.5000007 C26.0000089,12.4500008 31.9999992,6.94779978 38.4999992,7 C44.9999992,6.9477993 51.0000011,12.471826 51.0000011,19.5000007 C51.0000011,26.5281753 44.9999999,32 38.4999992,32 L32.9999992,32 C32.9999992,32 34.9999992,33.5 33.9999992,34.5 C32.9999992,35.5 31.9999999,34.5000008 31.4999992,34 L29.4999992,32 C28.4999992,31 28.4999992,30 29.4999992,29 L31.4999992,27 C31.9999999,26.5000008 32.9999992,25.5 33.9999992,26.5 C34.9999992,27.5 32.9999992,29 32.9999992,29 L38.4999992,29 C43.4999999,29 47.9999985,25.0000013 48.0000011,19.5000007 C48.0000037,14 43.4996995,10 38.4999992,10 C32.9999999,10 29,14.5 29,19.5000007 Z"></path>
</svg>