<svg width="11px" height="11px" viewBox="0 0 11 11" version="1.1" xmlns="http://www.w3.org/2000/svg">
    <path fill="#FFFFFF" d="M5.5,3 C6.32842712,3 7,2.32842712 7,1.5 C7,0.671572875 6.32842712,0 5.5,0 C4.67157288,0 4,0.671572875 4,1.5 C4,2.32842712 4.67157288,3 5.5,3 Z M5.5,11 C6.32842712,11 7,10.3284271 7,9.5 C7,8.67157288 6.32842712,8 5.5,8 C4.67157288,8 4,8.67157288 4,9.5 C4,10.3284271 4.67157288,11 5.5,11 Z M9.5,7 C10.3284271,7 11,6.32842712 11,5.5 C11,4.67157288 10.3284271,4 9.5,4 C8.67157288,4 8,4.67157288 8,5.5 C8,6.32842712 8.67157288,7 9.5,7 Z M1.5,7 C2.32842712,7 3,6.32842712 3,5.5 C3,4.67157288 2.32842712,4 1.5,4 C0.671572875,4 0,4.67157288 0,5.5 C0,6.32842712 0.671572875,7 1.5,7 Z"></path>
</svg>