<svg width="20px" height="20px" viewBox="0 0 20 20" version="1.1" xmlns="http://www.w3.org/2000/svg">
    <g fill-rule="evenodd">
        <path d="M7,6 L2.00247329,6 C1.45576096,6 1,6.44882258 1,7.00247329 L1,16.9975267 C1,17.544239 1.44882258,18 2.00247329,18 L11.9975267,18 C12.544239,18 13,17.5511774 13,16.9975267 L13,14 L17.9975267,14 C18.544239,14 19,13.5511774 19,12.9975267 L19,3.00247329 C19,2.45576096 18.5511774,2 17.9975267,2 L8.00247329,2 C7.45576096,2 7,2.44882258 7,3.00247329 L7,6 Z M3,8 L11,8 L11,16 L3,16 L3,8 Z M9,4 L17,4 L17,12 L13,12 L13,6.99077797 C13,6.44358641 12.5566468,6 11.9906311,6 L9,6 L9,4 Z"></path>
    </g>
</svg>