<svg width="20px" height="20px" viewBox="0 0 20 20" version="1.1" xmlns="http://www.w3.org/2000/svg">
    <g fill-rule="evenodd">
        <path d="M4,12 L4,7.990237 C4,4.68192046 6.69303423,2 10,2 C13.3137085,2 16,4.67981648 16,7.990237 L16,12 L17,12 C17,12 18,12 18,13 C18,14 17,14 17,14 L3,14 C3,14 2,14 2,13 C2,12 3,12 3,12 L4,12 Z M6,12 L6,8 C6,5.790861 7.79535615,4 10,4 C12.209139,4 14,5.79535615 14,8 L14,12 L6,12 Z M8.29855594,15.9451428 C8.13366805,15.4231548 8.44335318,15 9.0093689,15 L10.9906311,15 C11.5480902,15 11.8847942,15.4354668 11.6954899,15.9594154 C11.6954899,15.9594154 11.5,17.5 10,17.5 C8.5,17.5 8.29855594,15.9451428 8.29855594,15.9451428 Z"></path>
    </g>
</svg>