<svg width="20px" height="20px" viewBox="0 0 20 20" version="1.1" xmlns="http://www.w3.org/2000/svg">
    <g fill-rule="evenodd">
        <path d="M9.84241556,9.12205053 L2.98959236,15.9748737 C2.98959236,15.9748737 2.28248558,16.6819805 2.98959236,17.3890873 C3.69669914,18.0961941 4.40380592,17.3890873 4.40380592,17.3890873 L5.81801948,15.9748737 L7.23297087,17.3898251 C7.62633171,17.783186 8.25586137,17.7796725 8.64631049,17.3892234 L10.7679031,15.2676308 C11.1611187,14.8744152 11.1586216,14.244408 10.7685048,13.8542912 L9.35355339,12.4393398 L11.3427281,10.4501651 C11.983245,10.8007084 12.718349,11 13.5,11 C15.9852814,11 18,8.98528137 18,6.5 C18,4.01471863 15.9852814,2 13.5,2 C11.0147186,2 9,4.01471863 9,6.5 C9,7.47833405 9.31220338,8.38374908 9.84241556,9.12205053 Z M13.5,9 C14.8807119,9 16,7.88071187 16,6.5 C16,5.11928813 14.8807119,4 13.5,4 C12.1192881,4 11,5.11928813 11,6.5 C11,7.88071187 12.1192881,9 13.5,9 Z"></path>
    </g>
</svg>