<svg width="20px" height="20px" viewBox="0 0 20 20" version="1.1" xmlns="http://www.w3.org/2000/svg">
    <g fill-rule="evenodd">
         <path d="M10,18 C14.418278,18 18,14.418278 18,10 C18,5.581722 14.418278,2 10,2 C5.581722,2 2,5.581722 2,10 C2,14.418278 5.581722,18 10,18 Z M10,16 C13.3137085,16 16,13.3137085 16,10 C16,6.6862915 13.3137085,4 10,4 C6.6862915,4 4,6.6862915 4,10 C4,13.3137085 6.6862915,16 10,16 Z M13,9 C13,9 14,9 14,10 C14,11 13,11 13,11 L10.9958496,11 L11,13 C11,13 10.9958496,14 10,14 C9.00415039,14 9.01635742,13 9.01635742,13 L9.01635742,11 L7,11 C7,11 6,11 6,10 C6,9 7,9 7,9 L9,9 L9.01635742,7 C9.01635742,7 9.00415039,6 10,6 C10.9958496,6 10.9958496,7 10.9958496,7 L11,9 L13,9 Z"></path>
    </g>
</svg>