<svg width="20px" height="20px" viewBox="0 0 20 20" version="1.1" xmlns="http://www.w3.org/2000/svg">
    <g fill-rule="evenodd">
        <path fill="currentColor" d="M5,4 C5,4 5,3 6,3 C7,3 7,4 7,4 L7,16 C7,16 7,17 6,17 C5,17 5,16 5,16 L5,4 Z M13,4 C13,4 13,3 14,3 C15,3 15,4 15,4 L15,16 C15,16 15,17 14,17 C13,17 13,16 13,16 L13,4 Z"></path>
        <path d="M5.69952297,3.04586029 C4.76090235,2.4682476 4,2.89451376 4,3.99406028 L4,16.0059397 C4,17.1072288 4.75512566,17.5353073 5.69952297,16.9541397 L15.300477,11.0458603 C16.2390976,10.4682476 16.2448743,9.53530729 15.300477,8.95413971 L5.69952297,3.04586029 Z M6,5.5 L6,14.5 L13.5,10 L6,5.5 Z"></path>
    </g>
</svg>