<svg width="20px" height="20px" viewBox="0 0 20 20" version="1.1" xmlns="http://www.w3.org/2000/svg">
    <g fill-rule="evenodd">
        <path d="M4,5 C4,4.44771525 4.44386482,4 5,4 C5,4 4.5,4 5,4 C5.5,4 7,5 7,5 L8.5,4.5 L8.80238676,2.9880662 C8.91152554,2.4423723 9.44386482,2 10,2 L10,2 C10.5522847,2 11.0870934,2.43546677 11.1976132,2.9880662 L11.5,4.5 L13,5 C13,5 14.5,4 15,4 L15,4 C15.5522847,4 16,4.44386482 16,5 C16,5 16,4.5 16,5 C16,5.5 15,7 15,7 L15.5,8.5 L17.0119338,8.80238676 C17.5576277,8.91152554 18,9.44386482 18,10 L18,10 C18,10.5522847 17.5645332,11.0870934 17.0119338,11.1976132 L15.5,11.5 L15,13 C15,13 16,14.5 16,15 C16,15.5 16,15 16,15 C16,15.5522847 15.5561352,16 15,16 L15,16 C14.5,16 13,15 13,15 L11.5,15.5 L11.1976132,17.0119338 C11.0884745,17.5576277 10.5561352,18 10,18 L10,18 C9.44771525,18 8.91290665,17.5645332 8.80238676,17.0119338 L8.5,15.5 L7,15 C7,15 5.5,16 5,16 C4.5,16 5,16 5,16 C4.44771525,16 4,15.5561352 4,15 C4,15 4,15.5 4,15 C4,14.5 5,13 5,13 L4.5,11.5 L2.9880662,11.1976132 C2.4423723,11.0884745 2,10.5561352 2,10 L2,10 C2,9.44771525 2.43546677,8.91290665 2.9880662,8.80238676 L4.5,8.5 L5,7 C5,7 4,5.5 4,5 C4,4.5 4,5 4,5 Z M10,13 C11.6568542,13 13,11.6568542 13,10 C13,8.34314575 11.6568542,7 10,7 C8.34314575,7 7,8.34314575 7,10 C7,11.6568542 8.34314575,13 10,13 Z"></path>
    </g>
</svg>