<svg width="20px" height="20px" viewBox="0 0 20 20" version="1.1" xmlns="http://www.w3.org/2000/svg">
    <g fill-rule="evenodd">
        <path d="M12.0990011,12.6790655 L8.93738907,10.612668 C8.97843142,10.4148795 9,10.2099585 9,10 C9,9.79004146 8.97843142,9.58512052 8.93738907,9.38733203 L12.0990011,7.3209345 C12.6165133,7.7453107 13.2785137,8 14,8 C15.6568542,8 17,6.65685425 17,5 C17,3.34314575 15.6568542,2 14,2 C12.3431458,2 11,3.34314575 11,5 C11,5.20995854 11.0215686,5.41487948 11.0626109,5.61266797 L7.90099886,7.6790655 C7.38348671,7.2546893 6.72148629,7 6,7 C4.34314575,7 3,8.34314575 3,10 C3,11.6568542 4.34314575,13 6,13 C6.72148629,13 7.38348671,12.7453107 7.90099886,12.3209345 L11.0626109,14.387332 C11.0215686,14.5851205 11,14.7900415 11,15 C11,16.6568542 12.3431458,18 14,18 C15.6568542,18 17,16.6568542 17,15 C17,13.3431458 15.6568542,12 14,12 C13.2785137,12 12.6165133,12.2546893 12.0990011,12.6790655 Z M6,11 C6.55228475,11 7,10.5522847 7,10 C7,9.44771525 6.55228475,9 6,9 C5.44771525,9 5,9.44771525 5,10 C5,10.5522847 5.44771525,11 6,11 Z M14,6 C14.5522847,6 15,5.55228475 15,5 C15,4.44771525 14.5522847,4 14,4 C13.4477153,4 13,4.44771525 13,5 C13,5.55228475 13.4477153,6 14,6 Z M14,16 C14.5522847,16 15,15.5522847 15,15 C15,14.4477153 14.5522847,14 14,14 C13.4477153,14 13,14.4477153 13,15 C13,15.5522847 13.4477153,16 14,16 Z"></path>
    </g>
</svg>